<?xml version="1.0" encoding="UTF-8"?>
<!DOCTYPE svg PUBLIC "-//W3C//DTD SVG 1.1//EN" "http://www.w3.org/Graphics/SVG/1.1/DTD/svg11.dtd">
<svg xmlns="http://www.w3.org/2000/svg" version="1.1" width="64px" height="64px" style="shape-rendering:geometricPrecision; text-rendering:geometricPrecision; image-rendering:optimizeQuality; fill-rule:evenodd; clip-rule:evenodd" xmlns:xlink="http://www.w3.org/1999/xlink">
<g><path style="opacity:0.963" fill="#8358c8" d="M 22.5,23.5 C 22.884,30.2054 26.2173,34.5387 32.5,36.5C 16.0974,37.9485 10.2641,30.9485 15,15.5C 19.6692,10.3309 25.5025,7.99761 32.5,8.5C 38.1703,7.88957 43.0036,9.55623 47,13.5C 48.2121,16.8342 47.3788,19.3342 44.5,21C 40.661,19.7503 36.661,18.5836 32.5,17.5C 27.8164,17.4987 24.483,19.4987 22.5,23.5 Z"/></g>
<g><path style="opacity:0.901" fill="#e581e4" d="M 22.5,23.5 C 23.2674,24.172 23.9341,25.0053 24.5,26C 30.9138,26.129 37.2472,26.7957 43.5,28C 47.2759,29.605 49.2759,32.4384 49.5,36.5C 45.6992,35.2854 42.0326,35.2854 38.5,36.5C 36.5,36.5 34.5,36.5 32.5,36.5C 26.2173,34.5387 22.884,30.2054 22.5,23.5 Z"/></g>
<g><path style="opacity:0.96" fill="#8458c8" d="M 38.5,36.5 C 42.0326,35.2854 45.6992,35.2854 49.5,36.5C 51.0582,45.8246 47.0582,51.6579 37.5,54C 30.9456,55.0807 24.6123,54.414 18.5,52C 12.8231,47.2877 13.1564,43.4544 19.5,40.5C 22.4948,41.9974 25.4948,43.4974 28.5,45C 33.7977,46.2391 37.7977,44.5725 40.5,40C 39.9152,38.6976 39.2485,37.531 38.5,36.5 Z"/></g>
</svg>
