<svg xmlns="http://www.w3.org/2000/svg"  viewBox="0 0 40 40" width="40px" height="40px"><path fill="#98ccfd" d="M5,37.5c-1.379,0-2.5-1.121-2.5-2.5V5c0-1.379,1.121-2.5,2.5-2.5h30c1.379,0,2.5,1.121,2.5,2.5v30 c0,1.379-1.121,2.5-2.5,2.5H5z"/><path fill="#4788c7" d="M35,3c1.103,0,2,0.897,2,2v30c0,1.103-0.897,2-2,2H5c-1.103,0-2-0.897-2-2V5c0-1.103,0.897-2,2-2H35 M35,2H5C3.343,2,2,3.343,2,5v30c0,1.657,1.343,3,3,3h30c1.657,0,3-1.343,3-3V5C38,3.343,36.657,2,35,2L35,2z"/><path fill="#fff" d="M7 6H20V34H7z"/><path fill="#fff" d="M27 6A7 7 0 1 0 27 20 7 7 0 1 0 27 6zM27 20A7 7 0 1 0 27 34 7 7 0 1 0 27 20z"/></svg>